#!OML:ASF X:\für Bonn\!DataBase\2005_08_11_Bastian_Final\c3d\Bastian.ASF
:FULLY-SPECIFIED
:DEGREES
121
root 4.49673 17.5437 -6.25075 158.857 23.1026 -183.196
lowerback 18.287 -2.8493 2.59059
upperback 11.4661 -1.53686 -2.72963
thorax 1.92293 0.262283 -4.08038
lowerneck -11.3361 -0.76275 -5.78528
upperneck -4.59453 0.120133 4.11159
head 0.484986 0.384762 2.32098
rclavicle 5.65294e-015 -1.88845e-015
rhumerus -56.4222 23.6043 -100.114
rradius 109.059
rwrist 0.520745
rhand -14.3153 8.61741
rfingers 7.12502
rthumb 11.825 -21.0287
lclavicle 5.65294e-015 -1.88845e-015
lhumerus -26.8244 -25.9776 93.6496
lradius 121.789
lwrist 31.0043
lhand -5.37993 -21.7027
lfingers 7.12502
lthumb 20.4283 7.24271
rfemur 14.0012 3.88465 23.3497
rtibia 37.1947
rfoot -15.2812 4.02488
rtoes 3.2675
lfemur -27.6319 12.6827 -13.9807
ltibia 89.9194
lfoot 2.67596 5.77024
ltoes -21.4493
122
root 4.49618 17.5239 -6.29907 159.532 23.3134 -182.973
lowerback 17.5727 -2.8059 2.57358
upperback 11.2306 -1.60271 -2.52002
thorax 2.0301 0.172374 -3.84242
lowerneck -11.2377 -0.63354 -5.70578
upperneck -4.66011 0.277837 4.10047
head 0.438417 0.461125 2.30729
rclavicle 4.60621e-014 -3.20292e-014
rhumerus -56.3035 23.518 -100.044
rradius 109.155
rwrist 0.745032
rhand -14.6357 8.70517
rfingers 7.12502
rthumb 11.5161 -20.9585
lclavicle 4.60621e-014 -3.20292e-014
lhumerus -27.0625 -26.2913 93.926
lradius 121.869
lwrist 31.0115
lhand -5.24763 -21.589
lfingers 7.12502
lthumb 20.5555 7.3427
rfemur 13.3725 3.95628 23.5083
rtibia 37.5889
rfoot -15.7372 3.99597
rtoes 3.05379
lfemur -25.8394 11.6417 -14.1109
ltibia 88.4299
lfoot 1.98638 6.38832
ltoes -21.2297
123
root 4.49619 17.5046 -6.34858 160.164 23.5029 -182.75
lowerback 16.92 -2.77205 2.54141
upperback 10.98 -1.67827 -2.30033
thorax 2.09292 0.0776142 -3.5856
lowerneck -11.1242 -0.504647 -5.66153
upperneck -4.66831 0.432416 4.0716
head 0.408106 0.533513 2.29416
rclavicle 1.49259e-014 2.92027e-014
rhumerus -56.2274 23.4593 -100.021
rradius 109.35
rwrist 1.01599
rhand -14.9414 8.79185
rfingers 7.12502
rthumb 11.2213 -20.8881
lclavicle 1.49259e-014 2.92027e-014
lhumerus -27.3381 -26.5697 94.26
lradius 121.967
lwrist 31.0469
lhand -5.05661 -21.4736
lfingers 7.12502
lthumb 20.739 7.43817
rfemur 12.8022 4.04537 23.6748
rtibia 37.9812
rfoot -16.1821 3.94543
rtoes 3.02384
lfemur -24.0637 10.6284 -14.272
ltibia 86.8617
lfoot 1.44187 6.92762
ltoes -20.8514
124
root 4.49893 17.4853 -6.39973 160.782 23.6173 -182.509
lowerback 16.2309 -2.76061 2.50287
upperback 10.7679 -1.77362 -2.09026
thorax 2.21851 -0.0200051 -3.33559
lowerneck -11.0161 -0.391991 -5.61203
upperneck -4.69165 0.567103 4.05966
head 0.375083 0.596982 2.28476
rclavicle 4.32791e-014 -2.99668e-014
rhumerus -56.0975 23.3852 -100.026
rradius 109.656
rwrist 1.2943
rhand -15.1934 8.86275
rfingers 7.12502
rthumb 10.9782 -20.8302
lclavicle 4.32791e-014 -2.99668e-014
lhumerus -27.5228 -26.8816 94.5222
lradius 122.065
lwrist 31.0504
lhand -4.92804 -21.3601
lfingers 7.12502
lthumb 20.8625 7.53817
rfemur 12.2889 4.13371 23.8696
rtibia 38.3465
rfoot -16.6452 3.84944
rtoes 3.01788
lfemur -22.3445 9.58894 -14.4395
ltibia 85.2187
lfoot 1.02909 7.36652
ltoes -20.1473
125
root 4.5041 17.4655 -6.45092 161.404 23.6624 -182.234
lowerback 15.5646 -2.75932 2.45965
upperback 10.5464 -1.87939 -1.86398
thorax 2.32566 -0.122306 -3.06693
lowerneck -10.8878 -0.2995 -5.5574
upperneck -4.72382 0.673175 4.02125
head 0.337301 0.645567 2.26413
rclavicle -7.23079e-015 1.67476e-014
rhumerus -56.012 23.3055 -100.085
rradius 110.091
rwrist 1.504
rhand -15.4083 8.92552
rfingers 7.12502
rthumb 10.771 -20.7783
lclavicle -7.23079e-015 1.67476e-014
lhumerus -27.7038 -27.2261 94.8099
lradius 122.148
lwrist 31.0566
lhand -4.7711 -21.2933
lfingers 7.12502
lthumb 21.0133 7.5883
rfemur 11.8073 4.22724 24.1189
rtibia 38.6932
rfoot -17.0794 3.70755
rtoes 3.1618
lfemur -20.7334 8.5889 -14.5809
ltibia 83.5298
lfoot 0.800099 7.67899
ltoes -19.5832
126
root 4.5112 17.4429 -6.50009 162.006 23.6982 -181.948
lowerback 14.921 -2.75595 2.39121
upperback 10.3514 -1.97483 -1.62482
thorax 2.45529 -0.215696 -2.77457
lowerneck -10.8345 -0.221592 -5.53052
upperneck -4.70742 0.766173 3.99785
head 0.328661 0.688642 2.25423
rclavicle 1.91703e-014 -9.44227e-015
rhumerus -55.8869 23.2515 -100.172
rradius 110.612
rwrist 1.6866
rhand -15.5874 8.97736
rfingers 7.12502
rthumb 10.5982 -20.7354
lclavicle 1.91703e-014 -9.44227e-015
lhumerus -27.7916 -27.6026 95.0653
lradius 122.237
lwrist 31.0967
lhand -4.67581 -21.2005
lfingers 7.12502
lthumb 21.1049 7.67091
rfemur 11.364 4.36009 24.4175
rtibia 39.0196
rfoot -17.5312 3.48322
rtoes 3.16911
lfemur -19.1908 7.73917 -14.6534
ltibia 81.8127
lfoot 0.655598 7.80541
ltoes -18.8922
127
root 4.52203 17.4188 -6.546 162.601 23.6991 -181.673
lowerback 14.3121 -2.72931 2.28577
upperback 10.1366 -2.04089 -1.40068
thorax 2.55129 -0.295443 -2.48269
lowerneck -10.7696 -0.165662 -5.45063
upperneck -4.66413 0.820858 3.97134
head 0.328661 0.710688 2.2323
rclavicle 3.2551e-014 -2.06736e-014
rhumerus -55.6796 23.1047 -100.369
rradius 111.046
rwrist 1.87295
rhand -15.736 9.0695
rfingers 7.12502
rthumb 10.4549 -20.6505
lclavicle 3.2551e-014 -2.06736e-014
lhumerus -27.8861 -28.0502 95.2712
lradius 122.345
lwrist 31.1814
lhand -4.56557 -21.1538
lfingers 7.12502
lthumb 21.2108 7.7058
rfemur 10.9236 4.53195 24.7531
rtibia 39.3382
rfoot -17.9562 3.17004
rtoes 3.22635
lfemur -17.7472 7.00769 -14.6811
ltibia 80.0944
lfoot 0.549499 7.7299
ltoes -17.8403
128
root 4.53451 17.3959 -6.5908 163.22 23.6565 -181.377
lowerback 13.6966 -2.71403 2.18012
upperback 9.921 -2.11884 -1.16797
thorax 2.65276 -0.37981 -2.18263
lowerneck -10.7413 -0.122924 -5.38225
upperneck -4.58857 0.859941 3.93801
head 0.346011 0.724947 2.21036
rclavicle -3.34455e-014 7.85199e-015
rhumerus -55.3989 23.0094 -100.583
rradius 111.44
rwrist 1.96177
rhand -15.8608 9.1918
rfingers 7.12502
rthumb 10.3344 -20.5343
lclavicle -3.34455e-014 7.85199e-015
lhumerus -27.9382 -28.5304 95.4936
lradius 122.419
lwrist 31.2248
lhand -4.50118 -21.1637
lfingers 7.12502
lthumb 21.2726 7.68891
rfemur 10.4803 4.70069 25.1215
rtibia 39.6375
rfoot -18.3956 2.81536
rtoes 3.15584
lfemur -16.3954 6.35287 -14.6655
ltibia 78.3793
lfoot 0.386229 7.50744
ltoes -16.8428
